<svg xmlns="http://www.w3.org/2000/svg" width="24" height="24"><path d="M7.961 7.5h1.303l2.47 6.5h-1.349l-.538-1.5H7.409L6.874 14H5.482l2.479-6.5zm1.517 3.965l-.857-2.451-.851 2.451h1.708zm8.092-1.402c.062-.243.1-.426.135-.605l-1.1-.214-.109.5a4.814 4.814 0 0 0-1.166-.021c.009-.268.025-.531.049-.784h1.229V7.897h-1.081c.054-.265.099-.424.144-.575L14.597 7a7.298 7.298 0 0 0-.211.897H13.16v1.042h1.092c-.028.337-.046.686-.051 1.038-1.207.443-1.719 1.288-1.719 2.054 0 .904.714 1.7 1.842 1.598 1.401-.128 2.337-1.186 2.885-2.487.567.327.805.876.591 1.385-.197.471-.78.919-1.892.896v1.121c1.234.019 2.448-.45 2.925-1.583.465-1.108-.066-2.318-1.263-2.898zm-1.446.766c-.175.387-.404.771-.697 1.075a11.394 11.394 0 0 1-.093-1.054c.268-.035.537-.041.79-.021zm-1.894.362c.03.473.084.909.158 1.298-.997.183-1.037-.801-.158-1.298zM12 3c5.514 0 10 3.592 10 8.007 0 4.917-5.145 7.961-9.91 7.961-1.937 0-3.384-.397-4.394-.644-1 .613-1.594 1.037-4.272 1.82.535-1.373.722-2.748.601-4.265-.837-1-2.025-2.4-2.025-4.872C2 6.592 6.486 3 12 3zm0-2C5.662 1 0 5.226 0 11.007c0 2.05.739 4.063 2.047 5.625.055 1.83-1.023 4.456-1.993 6.368 2.602-.47 6.301-1.508 7.978-2.536 1.417.345 2.774.503 4.059.503 7.083 0 11.91-4.837 11.91-9.961C24 5.195 18.299 1 12 1z"/></svg>